<?xml version="1.0" encoding="UTF-8"?>
<svg width="24px" height="24px" viewBox="0 0 24 24" version="1.1" xmlns="http://www.w3.org/2000/svg">
    <g stroke="none" stroke-width="1" fill="none" fill-rule="evenodd">
        <path d="M12,2 C6.48,2 2,6.48 2,12 C2,17.52 6.48,22 12,22 C17.52,22 22,17.52 22,12 C22,6.48 17.52,2 12,2 Z M12,20 C7.59,20 4,16.41 4,12 C4,7.59 7.59,4 12,4 C16.41,4 20,7.59 20,12 C20,16.41 16.41,20 12,20 Z" fill="#007BFF"/>
        <path d="M12,6 C11.45,6 11,6.45 11,7 L11,9 C11,9.55 11.45,10 12,10 C12.55,10 13,9.55 13,9 L13,7 C13,6.45 12.55,6 12,6 Z" fill="#007BFF"/>
        <path d="M12,14 C11.45,14 11,14.45 11,15 L11,17 C11,17.55 11.45,18 12,18 C12.55,18 13,17.55 13,17 L13,15 C13,14.45 12.55,14 12,14 Z" fill="#007BFF"/>
        <path d="M7,11 C6.45,11 6,11.45 6,12 C6,12.55 6.45,13 7,13 L9,13 C9.55,13 10,12.55 10,12 C10,11.45 9.55,11 9,11 L7,11 Z" fill="#007BFF"/>
        <path d="M15,11 C14.45,11 14,11.45 14,12 C14,12.55 14.45,13 15,13 L17,13 C17.55,13 18,12.55 18,12 C18,11.45 17.55,11 17,11 L15,11 Z" fill="#007BFF"/>
    </g>
</svg> 